<?xml version="1.0" standalone="no"?>
<!DOCTYPE svg PUBLIC "-//W3C//DTD SVG 20010904//EN"
 "http://www.w3.org/TR/2001/REC-SVG-20010904/DTD/svg10.dtd">
<svg version="1.0" xmlns="http://www.w3.org/2000/svg"
 width="700.000000pt" height="700.000000pt" viewBox="0 0 700.000000 700.000000"
 preserveAspectRatio="xMidYMid meet">
<metadata>
Created by potrace 1.11, written by Peter Selinger 2001-2013
</metadata>
<g transform="translate(0.000000,700.000000) scale(0.100000,-0.100000)"
fill="#000000" stroke="none">
<path d="M4255 6227 c-106 -35 -143 -118 -124 -281 4 -34 10 -99 14 -146 3
-47 8 -101 10 -120 2 -19 7 -73 10 -120 10 -135 24 -223 40 -247 83 -126 262
-118 326 14 20 41 21 55 15 152 -4 59 -8 118 -11 132 -2 13 -6 65 -10 114 -4
50 -8 101 -10 115 -2 14 -6 68 -10 120 -8 115 -18 157 -47 200 -41 60 -133 90
-203 67z"/>
<path d="M5911 5680 c-39 -25 -40 -26 -106 -105 -28 -33 -52 -62 -55 -65 -3
-3 -61 -72 -130 -155 -69 -82 -136 -162 -149 -178 -90 -103 -93 -227 -6 -295
62 -49 159 -54 219 -11 31 23 414 471 465 545 17 25 26 53 29 92 4 68 -16 111
-72 156 -50 41 -143 48 -195 16z"/>
<path d="M2677 5405 c-47 -16 -81 -46 -102 -92 -48 -100 -12 -180 131 -293 17
-14 113 -94 213 -178 211 -178 238 -197 286 -206 115 -22 232 96 210 212 -11
60 -32 86 -130 169 -28 22 -99 83 -160 133 -180 151 -198 166 -244 204 -24 20
-53 42 -63 47 -31 17 -100 18 -141 4z"/>
<path d="M4447 4795 c-1 -2 -30 -5 -63 -8 -397 -38 -768 -342 -894 -734 l-27
-82 -59 62 c-263 278 -605 417 -989 404 -206 -7 -334 -38 -510 -123 -380 -183
-628 -503 -721 -929 -9 -39 -18 -151 -19 -222 l0 -73 -40 -1 c-22 0 -47 -2
-55 -3 -8 -2 -43 -6 -77 -10 -184 -19 -436 -133 -587 -266 -208 -181 -353
-444 -395 -715 -13 -85 -6 -317 13 -402 107 -493 509 -862 1002 -919 32 -4
934 -7 2004 -7 l1945 1 79 21 c321 86 562 352 615 679 13 80 6 234 -14 317
-79 323 -365 585 -679 624 l-50 6 -2 76 c-1 79 -12 182 -21 205 -3 8 23 25 71
48 174 80 350 236 454 401 161 257 205 591 117 884 -134 448 -542 755 -1018
766 -42 1 -78 1 -80 0z"/>
<path d="M6697 4124 c-1 -1 -36 -5 -77 -8 -41 -4 -95 -9 -120 -11 -25 -2 -79
-7 -120 -10 -78 -6 -131 -11 -214 -20 -101 -11 -166 -75 -174 -170 -6 -74 31
-143 95 -175 41 -21 54 -22 156 -16 62 3 123 8 137 10 14 2 66 7 115 11 50 4
103 8 118 10 15 2 65 6 111 10 47 3 97 8 113 11 94 15 155 81 159 172 3 74
-22 124 -84 163 -44 28 -53 30 -130 28 -45 -2 -84 -4 -85 -5z"/>
<path d="M5720 2847 c-58 -31 -72 -45 -96 -94 -19 -39 -25 -62 -21 -90 12 -80
23 -95 152 -203 49 -41 101 -85 115 -97 163 -140 320 -267 340 -275 121 -49
260 43 260 172 0 80 -23 105 -304 341 -147 123 -283 232 -304 241 -44 21 -108
23 -142 5z"/>
</g>
</svg>
